inDegrees=yes
name=ik_S50_A09_T01
DataType=double
version=3
OpenSimVersion=4.3-2021-08-27-4bc7ad9
endheader
time	pelvis_tilt	pelvis_list	pelvis_rotation	pelvis_tx	pelvis_ty	pelvis_tz	hip_flexion_r	hip_adduction_r	hip_rotation_r	knee_angle_r	knee_angle_r_beta	ankle_angle_r	subtalar_angle_r	mtp_angle_r	hip_flexion_l	hip_adduction_l	hip_rotation_l	knee_angle_l	knee_angle_l_beta	ankle_angle_l	subtalar_angle_l	mtp_angle_l	lumbar_extension	lumbar_bending	lumbar_rotation	arm_flex_r	arm_add_r	arm_rot_r	elbow_flex_r	pro_sup_r	wrist_flex_r	wrist_dev_r	arm_flex_l	arm_add_l	arm_rot_l	elbow_flex_l	pro_sup_l	wrist_flex_l	wrist_dev_l
8.259999999999913	-4.54683596222117	-1.419028030826696	36.22649057611945	0	0.9399999999999999	0	36.43182439019146	-10.80144855859886	-9.890281088005137	48.40482249865892	0.8448235264450267	0	0	0	36.43182439019146	-10.80144855859886	-9.890281088005137	48.40482249865892	0.8448235264450267	0	0	0	-2.741132874241366	-1.075657354469051	-1.893404723068977	52.17296160494828	-19.18201309396298	17.5884021395415	93.29392419868284	54.78591784443461	0	0	57.22598344164414	-16.97994889937788	-10.75976826700935	37.48636909619094	127.3095256948407	0	0
8.279999999999912	-4.536405440116569	-1.394524933617799	36.31787197906104	0	0.9399999999999999	0	36.4356232929586	-10.80023779499372	-9.890387822951034	48.4067977294539	0.8448580007258858	0	0	0	36.4356232929586	-10.80023779499372	-9.890387822951034	48.4067977294539	0.8448580007258858	0	0	0	-2.721279487874927	-1.054509648892004	-2.003458932010181	52.0972886432477	-19.18227496880705	17.63315367452314	93.21819766186374	54.57034646121517	0	0	57.67732158701033	-17.16410452639398	-10.8032477197936	36.19592155709609	128.647013595721	0	0
8.299999999999912	-4.531324683387011	-1.38504666661009	36.33196919167786	0	0.9399999999999999	0	36.44022578881345	-10.79876610926879	-9.890517433827899	48.40918135507303	0.8448996028410746	0	0	0	36.44022578881345	-10.79876610926879	-9.890517433827899	48.40918135507303	0.8448996028410746	0	0	0	-2.712755487538131	-1.047461069491721	-2.024824741207965	51.99325025632309	-19.15840733758664	17.63119530309581	93.17660794473737	54.45027449061958	0	0	58.19091640865074	-17.32147682328442	-10.56023236923256	34.96519121421719	129.7874171882051	0	0
8.319999999999911	-4.506914759376128	-1.375677779958731	36.25851420690476	0	0.9399999999999999	0	36.44264015141737	-10.7979967063804	-9.890585287435051	48.41043460346399	0.8449214761518421	0	0	0	36.44264015141737	-10.7979967063804	-9.890585287435051	48.41043460346399	0.8449214761518421	0	0	0	-2.686983979615066	-1.055666950985865	-1.987733204168813	51.89846398155751	-19.0933040901822	17.62110233759834	93.09714361671001	54.31891323297696	0	0	58.56932672089957	-17.45558888401611	-10.01940923217304	33.92128267044962	130.4003345750534	0	0
8.339999999999911	-4.520259714374711	-1.342233544460645	36.19341121090727	0	0.9399999999999999	0	36.44470482725003	-10.79733503006545	-9.890643532548342	48.41150005782326	0.8449400718384411	0	0	0	36.44470482725003	-10.79733503006545	-9.890643532548342	48.41150005782326	0.8449400718384411	0	0	0	-2.676807776395552	-1.025240044344618	-1.907225713064893	51.86705161904349	-19.17141944732171	17.62654942574104	93.10611494456468	54.32055966791014	0	0	58.93099178951387	-17.30616977500702	-9.306917047668206	33.57213147095003	129.9761457370245	0	0
8.359999999999911	-4.515686363611819	-1.339645443127288	36.10893972031027	0	0.9399999999999999	0	36.44908401464109	-10.79592997653424	-9.890767187797364	48.41375523853093	0.8449794321670174	0	0	0	36.44908401464109	-10.79592997653424	-9.890767187797364	48.41375523853093	0.8449794321670174	0	0	0	-2.671105881364127	-1.028905767797435	-1.831351691799942	51.82968273696409	-19.18526228598041	17.52209517225592	93.16789569868405	54.3074509311739	0	0	59.25199486396829	-17.36578110919804	-8.607154549966303	32.02179151894077	130.5408243824208	0	0
8.37999999999991	-4.506830616606512	-1.337787003816723	36.01525525104671	0	0.9399999999999999	0	36.45250315413852	-10.79483211843261	-9.890863796612509	48.4155134163398	0.8450101181586177	0	0	0	36.45250315413852	-10.79483211843261	-9.890863796612509	48.4155134163398	0.8450101181586177	0	0	0	-2.661858246107587	-1.03695300608784	-1.748012046140724	51.78408231271095	-19.17984092595675	17.40152343354563	93.13302966181089	54.17900139844264	0	0	59.77668812722985	-17.21407823571138	-7.774571197307997	31.00587544699641	130.578054374709	0	0
8.39999999999991	-4.497209718435868	-1.332338545651205	35.94702284352199	0	0.9399999999999999	0	36.45498805963209	-10.79404836501838	-9.890933210064334	48.41681172223321	0.8450327778711558	0	0	0	36.45498805963209	-10.79404836501838	-9.890933210064334	48.41681172223321	0.8450327778711558	0	0	0	-2.650639733171668	-1.040105052924947	-1.707150560811161	51.73653981403206	-19.11342961307341	17.34793589852031	93.01292289660495	53.84527288667194	0	0	59.9692813988676	-17.16317285835083	-7.661883088896275	30.31451014589017	130.9032722207897	0	0
8.419999999999909	-4.501297004857674	-1.335854319003001	35.95176863236301	0	0.9399999999999999	0	36.45890341845457	-10.79283338856063	-9.89104141971815	48.41888970863732	0.845069045575719	0	0	0	36.45890341845457	-10.79283338856063	-9.89104141971815	48.41888970863732	0.845069045575719	0	0	0	-2.656821605835723	-1.038695361105209	-1.724675888054374	51.72859065383719	-19.10028601200186	17.35982503862253	93.09380973022026	53.62422594005842	0	0	60.16743206189484	-17.08902899256352	-7.723509181744018	29.61784204160076	130.9675521060011	0	0
8.439999999999909	-4.489892197352787	-1.331075132948932	35.97483624669885	0	0.9399999999999999	0	36.46104023408941	-10.79215477057866	-9.891101388368853	48.41999792086303	0.8450883875278685	0	0	0	36.46104023408941	-10.79215477057866	-9.891101388368853	48.41999792086303	0.8450883875278685	0	0	0	-2.645887994176416	-1.038223835879726	-1.771387102222243	51.66466927235448	-19.05331142887752	17.40936679498221	93.09366968394811	53.46013072349964	0	0	60.23539419799922	-17.04457585964873	-8.044584490296472	29.12144760987865	130.9046337353437	0	0
8.459999999999908	-4.497668944745284	-1.3504004350329	36.01828273600604	0	0.9399999999999999	0	36.46541638189758	-10.79075547622286	-9.89122477142889	48.42225079328846	0.8451277075693197	0	0	0	36.46541638189758	-10.79075547622286	-9.89122477142889	48.42225079328846	0.8451277075693197	0	0	0	-2.664852095896798	-1.045778298817103	-1.814255804174745	51.64004282673852	-19.05022382036693	17.42519662101297	93.17428902550928	53.272471330568	0	0	60.40528836451101	-16.96667491094553	-8.457154709406344	28.52642871992157	131.0803461516204	0	0
